<?xml version="1.0" encoding="UTF-8"?>
<svg id="Layer_2" data-name="Layer 2" xmlns="http://www.w3.org/2000/svg" viewBox="0 0 646.61 893.65">
  <defs>
    <style>
      .cls-1 {
        fill: #f04937;
      }
    </style>
  </defs>
  <g id="Layer_1-2" data-name="Layer 1">
    <g>
      <path class="cls-1" d="M645.86,270.82h0S479.85,2.37,479.85,2.37c-1.05-1.7-3.02-2.61-5.01-2.31L189.93,43.44h0c-1.36.21-2.6.97-3.39,2.14L.86,319.45h0c-.56.82-.87,1.79-.87,2.81v443.51c0,2.1,1.32,3.98,3.29,4.7l338.74,122.88s.09.02.14.04c.19.06.38.11.57.15.08.02.15.03.22.04.26.04.51.07.77.07,0,0,0,0,0,0h0c.24,0,.47-.02.71-.05.08-.01.15-.03.22-.04.16-.03.32-.06.47-.11.09-.03.17-.06.26-.09.14-.05.28-.1.42-.17.09-.04.17-.08.25-.12.06-.03.12-.05.17-.08l297.87-171.69c1.55-.89,2.5-2.54,2.5-4.33v-443.51c0-.94-.27-1.85-.76-2.63ZM634.25,271.05l-287.9,117.25L197.9,52.35,473.08,10.44l161.17,260.61ZM189.76,58.66l145.45,329.16L13.3,318.92,189.76,58.66ZM10,328.44l328.74,70.37v482.71l-118.88-43.13v-183.28c0-2.33-1.61-4.35-3.88-4.87l-110.02-25.32c-1.48-.34-3.04.01-4.24.96-1.19.95-1.89,2.39-1.89,3.91v165.06l-89.84-32.59v-433.82ZM209.86,834.76l-100.02-36.28v-162.41l100.02,23.02v175.67ZM636.61,714.07l-287.87,165.93v-481.88l287.87-117.24v433.19Z"/>
      <path class="cls-1" d="M366.59,147.54l45.21,80.06c.91,1.6,2.59,2.54,4.35,2.54.51,0,1.03-.08,1.54-.24l76.53-24.72c2.06-.67,3.46-2.59,3.46-4.76V65.02c0-1.49-.66-2.9-1.81-3.85-.45-.37-.96-.66-1.49-.85h0s-46.01-16.64-46.01-16.64c-.84-.3-1.75-.38-2.62-.21l-75.72,14.26h0c-.68.14-1.34.4-1.93.81-1.35.93-2.15,2.47-2.15,4.11v82.44c0,.86.22,1.71.65,2.46ZM375.95,69.84l35.21,13.11v123.16l-35.21-62.35v-73.92ZM487.68,196.78l-66.53,21.49V83.62l66.53-12.57v125.73ZM446.25,53.55l27.52,9.95-57.18,10.81-27.06-10.08,56.72-10.68Z"/>
    </g>
  </g>
</svg>