<?xml version="1.0" encoding="UTF-8"?>
<svg id="Layer_2" data-name="Layer 2" xmlns="http://www.w3.org/2000/svg" xmlns:xlink="http://www.w3.org/1999/xlink" viewBox="0 0 234.92 340.49">
  <defs>
    <style>
      .cls-1 {
        fill: none;
      }

      .cls-2 {
        fill: #fff;
      }

      .cls-3 {
        fill: #f04937;
      }

      .cls-4 {
        clip-path: url(#clippath);
      }
    </style>
    <clipPath id="clippath">
      <rect class="cls-1" width="234.92" height="340.49"/>
    </clipPath>
  </defs>
  <g id="Layer_1-2" data-name="Layer 1">
    <g class="cls-4">
      <g>
        <polyline class="cls-2" points="166.81 417.02 -446.33 417.02 -446.33 -626.4 657.33 -626.4 657.33 417.02 166.81 417.02"/>
        <path class="cls-3" d="M414.41-294.35h0s-166.02-268.45-166.02-268.45c-1.05-1.71-3.03-2.62-5-2.31l-284.91,43.39h0c-1.36.21-2.6.97-3.39,2.14L-230.59-245.73h0c-.56.82-.87,1.79-.87,2.81V200.59c0,2.1,1.32,3.98,3.29,4.7l338.74,122.88s.09.02.14.04c.19.06.38.11.57.15.08.02.15.03.22.04.26.04.51.07.77.07.24,0,.47-.02.71-.05.08-.01.15-.03.22-.04.16-.03.32-.06.47-.11.09-.03.17-.06.25-.09.14-.05.28-.1.42-.17.09-.04.17-.08.25-.12.06-.03.12-.05.17-.08l297.87-171.69c1.55-.89,2.5-2.54,2.5-4.33v-443.51c0-.94-.27-1.85-.76-2.62ZM402.8-294.13L114.9-176.88-33.55-512.83l275.18-41.91,161.17,260.61ZM-41.69-506.51L103.76-177.35l-321.9-68.9L-41.69-506.51ZM-221.45-236.74L107.29-166.37v482.71l-118.88-43.13V89.94c0-2.33-1.61-4.35-3.88-4.87l-110.02-25.32c-1.49-.34-3.04.01-4.24.96-1.19.95-1.89,2.39-1.89,3.91v165.06l-89.84-32.59V-236.74ZM-21.59,269.59l-100.02-36.28V70.9l100.02,23.02v175.67ZM405.17,148.9L117.29,314.82V-167.05l287.87-117.24V148.9Z"/>
      </g>
    </g>
  </g>
</svg>