<?xml version="1.0" encoding="UTF-8"?>
<svg id="Layer_2" data-name="Layer 2" xmlns="http://www.w3.org/2000/svg" viewBox="0 0 2155.82 930.29">
  <defs>
    <style>
      .cls-1, .cls-2 {
        fill: #fff;
      }

      .cls-3 {
        fill: #ef4a38;
      }

      .cls-2 {
        stroke: #ef4a38;
        stroke-linecap: round;
        stroke-linejoin: round;
        stroke-width: 8px;
      }

      .cls-4 {
        fill: #f04937;
      }
    </style>
  </defs>
  <g id="Layer_1-2" data-name="Layer 1">
    <ellipse class="cls-1" cx="1539.97" cy="527.29" rx="615.85" ry="322.49"/>
    <ellipse class="cls-1" cx="615.63" cy="607.36" rx="615.85" ry="322.49" transform="translate(-18.83 19.7) rotate(-1.81)"/>
    <path class="cls-2" d="M1872.56,259.39c61.78,21.37,124.42,49.54,187.22,85.72"/>
    <path class="cls-2" d="M941.94,395.91c72.81-75.16,336.18-212.21,661.35-190.94"/>
    <path class="cls-4" d="M1874.63,114.56h0S1804.4,1,1804.4,1c-.45-.72-1.28-1.11-2.12-.98l-120.52,18.35h0c-.57.09-1.1.41-1.43.9l-78.55,115.85h0c-.23.35-.37.76-.37,1.19v187.61c0,.89.56,1.68,1.39,1.99l143.29,51.98s.04,0,.06.02c.08.03.16.05.24.06.03,0,.06.01.1.02.11.02.22.03.33.03.1,0,.2,0,.3-.02.03,0,.06-.01.09-.02.07-.01.13-.03.2-.05.04-.01.07-.02.11-.04.06-.02.12-.04.18-.07.04-.02.07-.03.11-.05.02-.01.05-.02.07-.04l126-72.63c.66-.38,1.06-1.08,1.06-1.83V115.67c0-.4-.12-.78-.32-1.11Z"/>
    <polygon class="cls-1" points="1869.72 114.65 1747.93 164.25 1685.14 22.14 1801.54 4.42 1869.72 114.65"/>
    <polygon class="cls-1" points="1681.7 24.81 1743.22 164.05 1607.05 134.9 1681.7 24.81"/>
    <path class="cls-1" d="M1605.66,138.93l139.06,29.76v204.19l-50.29-18.24v-77.53c0-.99-.68-1.84-1.64-2.06l-46.54-10.71c-.63-.14-1.29,0-1.79.41-.5.4-.8,1.01-.8,1.65v69.82l-38-13.79v-183.51Z"/>
    <polygon class="cls-1" points="1690.2 353.11 1647.89 337.76 1647.89 269.06 1690.2 278.8 1690.2 353.11"/>
    <polygon class="cls-1" points="1870.71 302.05 1748.94 372.24 1748.94 168.41 1870.71 118.81 1870.71 302.05"/>
    <path class="cls-4" d="M1756.5,62.41l19.12,33.87c.38.68,1.1,1.08,1.84,1.08.22,0,.44-.03.65-.1l32.37-10.46c.87-.28,1.46-1.09,1.46-2.01V27.5c0-.63-.28-1.23-.77-1.63-.19-.16-.4-.28-.63-.36h0s-19.46-7.04-19.46-7.04c-.36-.13-.74-.16-1.11-.09l-32.03,6.03h0c-.29.06-.57.17-.82.34-.57.4-.91,1.04-.91,1.74v34.87c0,.36.09.72.27,1.04Z"/>
    <polygon class="cls-1" points="1760.45 29.54 1775.34 35.09 1775.34 87.19 1760.45 60.81 1760.45 29.54"/>
    <polygon class="cls-1" points="1807.71 83.24 1779.57 92.33 1779.57 35.37 1807.71 30.05 1807.71 83.24"/>
    <polygon class="cls-1" points="1790.19 22.65 1801.83 26.86 1777.64 31.43 1766.2 27.17 1790.19 22.65"/>
    <path class="cls-2" d="M44.58,477.59c105.01-108.4,606.34-345.51,1117.84-50.81"/>
    <g>
      <g>
        <path class="cls-4" d="M1746.73,376.61c-.15,0-.29-.01-.44-.04-.01,0-.09-.02-.11-.02-.13-.03-.24-.06-.34-.09l-141.73-51.41c-1.12-.41-1.87-1.48-1.87-2.67v-185.47c0-.54.15-1.07.45-1.52.01-.02.03-.05.04-.07l77.65-114.53c.42-.63,1.09-1.06,1.84-1.2.03,0,.05-.01.08-.02l119.14-18.14c.14-.02.29-.03.43-.03.98,0,1.9.52,2.42,1.35l69.43,112.26s.03.05.04.08c.25.43.38.92.38,1.41v185.47c0,1.01-.54,1.96-1.42,2.46l-124.57,71.8s-.23.12-.23.12c-.08.04-.16.07-.24.1l-.15.05c-.08.02-.17.04-.26.06-.01,0-.12.02-.13.02-.13.02-.27.03-.4.03ZM1743.89,369.72v-200.19l-135.97-29.1v179.97l36.07,13.09v-67.96c0-.87.39-1.68,1.07-2.22.5-.4,1.13-.62,1.77-.62.21,0,.43.02.64.07l46.01,10.59c1.3.3,2.2,1.44,2.2,2.77v76.12l48.21,17.49ZM1749.57,368.86l118.88-68.52V120.73l-118.88,48.42v199.71ZM1689.99,350.17v-71.8l-40.33-9.28v66.45l40.33,14.63ZM1748.21,163.56l118.9-48.42-66.67-107.81-113.62,17.3,61.39,138.93ZM1741.88,163.29l-59.68-135.07-72.41,106.79,132.09,28.27Z"/>
        <path class="cls-3" d="M1801.87,2.15c.72,0,1.39.37,1.78.99l69.43,112.26h0c.2.33.32.71.32,1.1v185.47c0,.75-.4,1.44-1.05,1.81l-124.57,71.8s-.05.02-.07.04c-.04.02-.07.04-.11.05-.06.03-.12.05-.17.07-.04.01-.07.03-.11.04-.06.02-.13.03-.2.05-.03,0-.06.01-.09.02-.1.01-.2.02-.29.02-.11,0-.22-.01-.32-.03-.03,0-.06-.01-.09-.02-.08-.02-.16-.04-.24-.06-.02,0-.04,0-.06-.02l-141.66-51.39c-.83-.3-1.38-1.09-1.38-1.97v-185.47c0-.42.13-.83.36-1.17h0s77.65-114.53,77.65-114.53c.33-.49.85-.8,1.42-.89h0s119.14-18.15,119.14-18.15c.11-.02.21-.02.32-.02M1747.82,164.53l120.4-49.03-67.4-108.98-115.08,17.52,62.08,140.49M1743.16,164.33l-60.82-137.65-73.79,108.84,134.62,28.81M1748.82,370.15l120.38-69.39V119.61l-120.38,49.03v201.51M1644.74,334.55v-69.03c0-.64.29-1.24.79-1.64.37-.3.83-.45,1.3-.45.16,0,.31.02.47.05l46.01,10.59c.95.22,1.62,1.06,1.62,2.04v76.64l49.71,18.03v-201.86l-137.47-29.43v181.42l37.57,13.63M1690.74,351.24v-73.46l-41.83-9.63v67.92l41.83,15.17M1801.87.65c-.18,0-.36.01-.54.04l-119.14,18.14s-.08.01-.12.02c-.94.18-1.77.72-2.31,1.51l-77.65,114.53s-.05.07-.07.11c-.36.58-.55,1.23-.55,1.91v185.47c0,1.51.95,2.86,2.37,3.38l141.66,51.39s.1.03.15.05c.11.04.24.07.36.09.06.01.11.02.16.03.2.03.38.05.55.05.16,0,.33-.01.51-.04.06,0,.11-.02.17-.03.11-.02.22-.05.34-.08.05-.02.11-.03.16-.05.12-.04.22-.08.32-.13.06-.03.12-.06.18-.09.02,0,.07-.03.12-.06l124.57-71.8c1.11-.64,1.8-1.83,1.8-3.11V116.5c0-.62-.16-1.22-.47-1.77-.02-.04-.04-.08-.07-.12L1804.92,2.35c-.65-1.05-1.82-1.7-3.05-1.7h0ZM1687.91,25.23l112.16-17.08,65.95,106.63-117.4,47.81-60.7-137.36h0ZM1611.04,134.52l71.02-104.75,58.54,132.48-129.57-27.73h0ZM1750.32,169.65l117.38-47.81v178.06l-117.38,67.66v-197.91h0ZM1608.66,319.87v-178.51l134.47,28.78v198.51l-46.71-16.95v-75.59c0-1.68-1.15-3.12-2.79-3.5l-46.01-10.59c-.27-.06-.54-.09-.8-.09-.81,0-1.6.28-2.24.78-.86.69-1.35,1.71-1.35,2.81v66.89l-34.57-12.54h0ZM1650.42,335.01v-64.98l38.83,8.94v70.13l-38.83-14.08h0Z"/>
      </g>
      <g>
        <path class="cls-4" d="M1777.01,99.14c-1.02,0-1.97-.55-2.47-1.44l-18.9-33.48c-.24-.42-.37-.91-.37-1.4V28.35c0-.93.46-1.8,1.22-2.33.3-.21.64-.36,1.01-.44.03,0,.06-.02.09-.02l31.67-5.96c.17-.03.35-.05.53-.05.33,0,.66.06.97.17l19.24,6.96c.32.12.6.28.85.48.65.54,1.03,1.34,1.03,2.19v56.62c0,1.24-.79,2.32-1.97,2.7l-32,10.34c-.28.09-.58.14-.87.14ZM1779.85,92.4l26.32-8.5v-51.13l-26.32,4.97v54.65ZM1774.17,85.49v-48.13l-13.22-4.92v29.64l13.22,23.42ZM1777.26,32.45l21.01-3.97-8.74-3.16-20.87,3.93,8.59,3.2Z"/>
        <path class="cls-3" d="M1789.77,20.3c.24,0,.48.04.71.12l19.24,6.96h0c.22.08.44.2.62.36.48.4.76.99.76,1.61v56.62c0,.91-.58,1.71-1.45,1.99l-32,10.34c-.21.07-.43.1-.64.1-.74,0-1.44-.39-1.82-1.06l-18.9-33.48c-.18-.31-.27-.67-.27-1.03V28.35c0-.69.34-1.33.9-1.72.25-.17.52-.28.81-.33h0s31.67-5.97,31.67-5.97c.13-.02.26-.04.39-.04M1777.2,33.23l23.91-4.52-11.51-4.16-23.72,4.47,11.31,4.21M1774.92,88.35v-51.5l-14.72-5.48v30.91l14.72,26.07M1779.1,93.43l27.82-8.99V31.86l-27.82,5.26v56.31M1789.77,18.8c-.22,0-.45.02-.66.06l-31.67,5.96s-.09.02-.13.03c-.46.1-.88.29-1.25.55-.97.67-1.54,1.77-1.54,2.95v34.47c0,.62.16,1.23.46,1.77l18.9,33.48c.64,1.13,1.83,1.83,3.13,1.83.38,0,.75-.06,1.1-.17l32-10.34c1.49-.48,2.49-1.85,2.49-3.42V29.34c0-1.07-.47-2.08-1.3-2.77-.29-.24-.62-.44-.98-.58-.03-.01-.06-.02-.09-.03l-19.24-6.96c-.39-.14-.8-.21-1.22-.21h0ZM1771.46,29.49l18.02-3.39,5.96,2.16-18.11,3.42-5.87-2.19h0ZM1761.7,61.88v-28.36l11.72,4.37v44.75l-11.72-20.76h0ZM1780.6,38.37l24.82-4.69v49.68l-24.82,8.02v-53h0Z"/>
      </g>
    </g>
  </g>
</svg>