<?xml version="1.0" encoding="UTF-8"?>
<svg id="Layer_2" data-name="Layer 2" xmlns="http://www.w3.org/2000/svg" viewBox="0 0 550.1 322.32">
  <defs>
    <style>
      .cls-1 {
        fill: #fff;
        stroke: #ef4a38;
        stroke-linecap: round;
        stroke-linejoin: round;
        stroke-width: 9px;
      }
    </style>
  </defs>
  <g id="Layer_1-2" data-name="Layer 1">
    <path class="cls-1" d="M441.17,317.82c57.68,0,104.44-46.76,104.44-104.44,0-45.25-28.78-83.78-69.04-98.28.12-2.04.19-4.09.19-6.16,0-57.68-46.76-104.44-104.44-104.44-37.98,0-71.23,20.28-89.51,50.6-14.97-8.29-32.19-13.02-50.52-13.02-45.55,0-84.28,29.16-98.56,69.82-7.95-1.93-16.25-2.97-24.79-2.97-57.68,0-104.44,46.76-104.44,104.44s46.76,104.44,104.44,104.44h332.23Z"/>
  </g>
</svg>