<?xml version="1.0" encoding="UTF-8"?>
<svg id="Layer_2" data-name="Layer 2" xmlns="http://www.w3.org/2000/svg" xmlns:xlink="http://www.w3.org/1999/xlink" viewBox="0 0 340.49 277.7">
  <defs>
    <style>
      .cls-1 {
        fill: none;
      }

      .cls-2 {
        fill: #fff;
      }

      .cls-3 {
        fill: #f04937;
      }

      .cls-4 {
        clip-path: url(#clippath);
      }
    </style>
    <clipPath id="clippath">
      <rect class="cls-1" width="340.49" height="277.7"/>
    </clipPath>
  </defs>
  <g id="Layer_1-2" data-name="Layer 1">
    <g class="cls-4">
      <g>
        <polyline class="cls-2" points="-68.11 365.61 -681.25 365.61 -681.25 -677.81 422.41 -677.81 422.41 365.61 -68.11 365.61"/>
        <path class="cls-3" d="M179.49-345.76h0S13.48-614.21,13.48-614.21c-1.05-1.71-3.03-2.62-5-2.31l-284.91,43.39h0c-1.36.21-2.6.97-3.39,2.14l-185.69,273.87h0c-.56.82-.87,1.79-.87,2.81V149.19c0,2.1,1.32,3.98,3.29,4.7l338.74,122.88s.09.02.14.04c.19.06.38.11.57.15.08.02.15.03.22.04.26.04.51.07.77.07.24,0,.47-.02.71-.05.08-.01.15-.03.22-.04.16-.03.32-.06.47-.11.09-.03.17-.06.25-.09.14-.05.28-.1.42-.17.09-.04.17-.08.25-.12.06-.03.12-.05.17-.08L177.74,104.71c1.55-.89,2.5-2.54,2.5-4.33v-443.51c0-.94-.27-1.85-.76-2.62ZM167.88-345.53L-120.02-228.28l-148.45-335.95L6.71-606.14l161.17,260.61ZM-276.61-557.92L-131.16-228.76l-321.9-68.9,176.46-260.25ZM-456.37-288.14L-127.63-217.78v482.71l-118.88-43.13V38.54c0-2.33-1.61-4.35-3.88-4.87l-110.02-25.32c-1.49-.34-3.04.01-4.24.96-1.19.95-1.89,2.39-1.89,3.91v165.06l-89.84-32.59v-433.82ZM-256.51,218.19l-100.02-36.28V19.49l100.02,23.02v175.67ZM170.25,97.49L-117.63,263.42V-218.46l287.87-117.24V97.49Z"/>
      </g>
    </g>
  </g>
</svg>