<?xml version="1.0" encoding="UTF-8"?>
<svg id="Layer_2" data-name="Layer 2" xmlns="http://www.w3.org/2000/svg" xmlns:xlink="http://www.w3.org/1999/xlink" viewBox="0 0 340.49 121.09">
  <defs>
    <style>
      .cls-1 {
        fill: none;
      }

      .cls-2 {
        fill: #fff;
      }

      .cls-3 {
        fill: #f04937;
      }

      .cls-4 {
        clip-path: url(#clippath);
      }
    </style>
    <clipPath id="clippath">
      <rect class="cls-1" width="340.49" height="121.09"/>
    </clipPath>
  </defs>
  <g id="Layer_1-2" data-name="Layer 1">
    <g class="cls-4">
      <g>
        <polyline class="cls-2" points="166.81 1043.42 -446.33 1043.42 -446.33 0 657.33 0 657.33 1043.42 166.81 1043.42"/>
        <g>
          <path class="cls-3" d="M414.41,332.05h0S248.4,63.6,248.4,63.6c-1.05-1.71-3.03-2.62-5-2.31L-41.51,104.68h0c-1.36.21-2.6.97-3.39,2.14l-185.69,273.87h0c-.56.82-.87,1.79-.87,2.81v443.51c0,2.1,1.32,3.98,3.29,4.7l338.74,122.88s.09.02.14.04c.19.06.38.11.57.15.08.02.15.03.22.04.26.04.51.07.77.07.24,0,.47-.02.71-.05.08-.01.15-.03.22-.04.16-.03.32-.06.47-.11.09-.03.17-.06.25-.09.14-.05.28-.1.42-.17.09-.04.17-.08.25-.12.06-.03.12-.05.17-.08l297.87-171.69c1.55-.89,2.5-2.54,2.5-4.33v-443.51c0-.94-.27-1.85-.76-2.62ZM402.8,332.28l-287.9,117.25L-33.55,113.58l275.18-41.91,161.17,260.61ZM-41.69,119.89L103.76,449.05l-321.9-68.9L-41.69,119.89ZM-221.45,389.67l328.74,70.37v482.71l-118.88-43.13v-183.28c0-2.33-1.61-4.35-3.88-4.87l-110.02-25.32c-1.49-.34-3.04.01-4.24.96-1.19.95-1.89,2.39-1.89,3.91v165.06l-89.84-32.59v-433.82ZM-21.59,896l-100.02-36.28v-162.41l100.02,23.02v175.67ZM405.17,775.3l-287.87,165.93v-481.88l287.87-117.24v433.19Z"/>
          <path class="cls-3" d="M135.14,208.77l45.21,80.06c.91,1.6,2.59,2.54,4.35,2.54.51,0,1.03-.08,1.54-.24l76.53-24.72c2.06-.67,3.46-2.59,3.46-4.76V126.25c0-1.49-.66-2.9-1.81-3.85-.45-.37-.96-.65-1.49-.85h0s-46.01-16.64-46.01-16.64c-.84-.3-1.75-.38-2.62-.21l-75.72,14.26h0c-.68.14-1.34.4-1.93.81-1.34.93-2.15,2.47-2.15,4.11v82.44c0,.86.22,1.71.65,2.46ZM144.5,131.07l35.21,13.11v123.16l-35.21-62.35v-73.92ZM256.23,258.01l-66.53,21.49v-134.64l66.53-12.57v125.73ZM214.81,114.79l27.52,9.95-57.18,10.81-27.06-10.08,56.72-10.68Z"/>
        </g>
      </g>
    </g>
  </g>
</svg>