<?xml version="1.0" encoding="UTF-8"?>
<svg id="Layer_2" data-name="Layer 2" xmlns="http://www.w3.org/2000/svg" xmlns:xlink="http://www.w3.org/1999/xlink" viewBox="0 0 340.49 277.7">
  <defs>
    <style>
      .cls-1 {
        fill: none;
      }

      .cls-2 {
        fill: #fff;
      }

      .cls-3 {
        fill: #f04937;
      }

      .cls-4 {
        clip-path: url(#clippath);
      }
    </style>
    <clipPath id="clippath">
      <rect class="cls-1" x="0" width="340.49" height="277.7"/>
    </clipPath>
  </defs>
  <g id="Layer_1-2" data-name="Layer 1">
    <g class="cls-4">
      <g>
        <polyline class="cls-2" points="507.3 958.46 -105.84 958.46 -105.84 -84.96 997.82 -84.96 997.82 958.46 507.3 958.46"/>
        <path class="cls-3" d="M754.9,247.1h0S588.89-21.35,588.89-21.35c-1.05-1.71-3.03-2.62-5-2.31L298.98,19.72h0c-1.36.21-2.6.97-3.39,2.14L109.9,295.72h0c-.56.82-.87,1.79-.87,2.81v443.51c0,2.1,1.32,3.98,3.29,4.7l338.74,122.88s.09.02.14.04c.19.06.38.11.57.15.08.02.15.03.22.04.26.04.51.07.77.07.24,0,.47-.02.71-.05.08-.01.15-.03.22-.04.16-.03.32-.06.47-.11.09-.03.17-.06.25-.09.14-.05.28-.1.42-.17.09-.04.17-.08.25-.12.06-.03.12-.05.17-.08l297.87-171.69c1.55-.89,2.5-2.54,2.5-4.33V249.72c0-.94-.27-1.85-.76-2.62ZM743.29,247.32l-287.9,117.25L306.94,28.62,582.12-13.28l161.17,260.61ZM298.8,34.94l145.45,329.16-321.9-68.9L298.8,34.94ZM119.04,304.71l328.74,70.37v482.71l-118.88-43.13v-183.28c0-2.33-1.61-4.35-3.88-4.87l-110.02-25.32c-1.49-.34-3.04.01-4.24.96-1.19.95-1.89,2.39-1.89,3.91v165.06l-89.84-32.59v-433.82ZM318.9,811.04l-100.02-36.28v-162.41l100.02,23.02v175.67ZM745.66,690.35l-287.87,165.93v-481.88l287.87-117.24v433.19Z"/>
      </g>
    </g>
  </g>
</svg>