<?xml version="1.0" encoding="UTF-8"?>
<svg id="Layer_2" data-name="Layer 2" xmlns="http://www.w3.org/2000/svg" xmlns:xlink="http://www.w3.org/1999/xlink" viewBox="0 0 340.49 277.7">
  <defs>
    <style>
      .cls-1 {
        fill: none;
      }

      .cls-2 {
        fill: #fff;
      }

      .cls-3 {
        fill: #f04937;
      }

      .cls-4 {
        clip-path: url(#clippath);
      }
    </style>
    <clipPath id="clippath">
      <rect class="cls-1" width="340.49" height="277.7"/>
    </clipPath>
  </defs>
  <g id="Layer_1-2" data-name="Layer 1">
    <g class="cls-4">
      <g>
        <polyline class="cls-2" points="507.3 680.76 -105.84 680.76 -105.84 -362.66 997.82 -362.66 997.82 680.76 507.3 680.76"/>
        <path class="cls-3" d="M754.9-30.6h0s-166.02-268.45-166.02-268.45c-1.05-1.71-3.03-2.62-5-2.31l-284.91,43.39h0c-1.36.21-2.6.97-3.39,2.14L109.9,18.02h0c-.56.82-.87,1.79-.87,2.81v443.51c0,2.1,1.32,3.98,3.29,4.7l338.74,122.88s.09.02.14.04c.19.06.38.11.57.15.08.02.15.03.22.04.26.04.51.07.77.07.24,0,.47-.02.71-.05.08-.01.15-.03.22-.04.16-.03.32-.06.47-.11.09-.03.17-.06.25-.09.14-.05.28-.1.42-.17.09-.04.17-.08.25-.12.06-.03.12-.05.17-.08l297.87-171.69c1.55-.89,2.5-2.54,2.5-4.33V-27.98c0-.94-.27-1.85-.76-2.62ZM743.29-30.38l-287.9,117.25-148.45-335.95,275.18-41.91L743.29-30.38ZM298.8-242.76L444.25,86.39,122.35,17.49l176.46-260.25ZM119.04,27.01l328.74,70.37v482.71l-118.88-43.13v-183.28c0-2.33-1.61-4.35-3.88-4.87l-110.02-25.32c-1.49-.34-3.04.01-4.24.96-1.19.95-1.89,2.39-1.89,3.91v165.06l-89.84-32.59V27.01ZM318.9,533.34l-100.02-36.28v-162.41l100.02,23.02v175.67ZM745.66,412.64l-287.87,165.93V96.7L745.66-20.54v433.19Z"/>
      </g>
    </g>
  </g>
</svg>