<?xml version="1.0" encoding="UTF-8"?>
<svg id="Layer_2" data-name="Layer 2" xmlns="http://www.w3.org/2000/svg" xmlns:xlink="http://www.w3.org/1999/xlink" viewBox="0 0 716.3 6424.27">
  <defs>
    <style>
      .cls-1, .cls-2 {
        fill: none;
      }

      .cls-3 {
        fill: #fff;
        stroke: #ef4a38;
      }

      .cls-3, .cls-2 {
        stroke-linecap: round;
        stroke-linejoin: round;
        stroke-width: 8px;
      }

      .cls-4 {
        fill: #f04937;
      }

      .cls-5 {
        clip-path: url(#clippath);
      }

      .cls-2 {
        stroke: #f04923;
      }
    </style>
    <clipPath id="clippath">
      <rect class="cls-1" width="716.3" height="6424.27"/>
    </clipPath>
  </defs>
  <g id="Layer_1-2" data-name="Layer 1">
    <g class="cls-5">
      <g>
        <g>
          <path class="cls-4" d="M680.7,288.35h0S514.69,19.9,514.69,19.9c-1.05-1.7-3.02-2.61-5.01-2.31L224.78,60.97h0c-1.36.21-2.6.97-3.39,2.14L35.7,336.97h0c-.56.82-.87,1.79-.87,2.81v5891.74c0,2.1,1.32,3.98,3.29,4.7l338.74,122.88s.09.02.14.04c.19.06.38.11.57.15.08.02.15.03.22.04.26.04.51.07.77.07,0,0,0,0,0,0h0c.24,0,.47-.02.71-.05.08-.01.15-.03.22-.04.16-.03.32-.06.47-.11.09-.03.17-.06.26-.09.14-.05.28-.1.42-.17.09-.04.17-.08.25-.12.06-.03.12-.05.17-.08l297.87-171.69c1.55-.89,2.5-2.54,2.5-4.33V290.97c0-.94-.27-1.85-.76-2.63ZM669.09,288.57l-287.9,117.25L232.75,69.87,507.92,27.97l161.17,260.61ZM224.6,76.19l145.45,329.16L48.15,336.44,224.6,76.19ZM44.84,345.96l328.74,70.37v5930.94l-118.88-43.13v-175.28c0-2.33-1.61-4.35-3.88-4.87l-110.02-33.32c-1.48-.34-3.04.01-4.24.96-1.19.95-1.89,2.39-1.89,3.91v165.06l-89.84-32.59V345.96ZM244.7,6300.51l-100.02-36.28v-162.41l100.02,31.02v167.67ZM671.46,6179.82l-287.87,165.93V415.65l287.87-117.24v5881.41Z"/>
          <path class="cls-4" d="M401.43,165.06l45.21,80.06c.91,1.6,2.59,2.54,4.35,2.54.51,0,1.03-.08,1.54-.24l76.53-24.72c2.06-.67,3.46-2.59,3.46-4.76V82.54c0-1.49-.66-2.9-1.81-3.85-.45-.37-.96-.66-1.49-.85h0s-46.01-16.64-46.01-16.64c-.84-.3-1.75-.38-2.62-.21l-75.72,14.26h0c-.68.14-1.34.4-1.93.81-1.35.93-2.15,2.47-2.15,4.11v82.44c0,.86.22,1.71.65,2.46ZM410.79,87.37l35.21,13.11v123.16l-35.21-62.35v-73.92ZM522.52,214.3l-66.53,21.49V101.15l66.53-12.57v125.73ZM481.1,71.08l27.52,9.95-57.18,10.81-27.06-10.08,56.72-10.68Z"/>
        </g>
        <g>
          <polygon class="cls-2" points="467.24 621.08 616.81 560.02 616.81 706.77 467.24 774.26 467.24 621.08"/>
          <line class="cls-2" x1="549.66" y1="737.07" x2="549.66" y2="587.43"/>
          <line class="cls-2" x1="467.24" y1="696.97" x2="616.81" y2="635.75"/>
        </g>
        <g>
          <polygon class="cls-2" points="467.24 2092.97 616.81 2031.91 616.81 2178.67 467.24 2246.15 467.24 2092.97"/>
          <line class="cls-2" x1="549.66" y1="2208.96" x2="549.66" y2="2059.32"/>
          <line class="cls-2" x1="467.24" y1="2168.86" x2="616.81" y2="2107.65"/>
        </g>
        <g>
          <polygon class="cls-2" points="467.24 3035.28 616.81 2974.22 616.81 3120.98 467.24 3188.46 467.24 3035.28"/>
          <line class="cls-2" x1="549.66" y1="3151.28" x2="549.66" y2="3001.64"/>
          <line class="cls-2" x1="467.24" y1="3111.17" x2="616.81" y2="3049.96"/>
        </g>
        <g>
          <polygon class="cls-2" points="278.1 3623.04 128.53 3584.98 128.53 3731.74 278.1 3776.22 278.1 3623.04"/>
          <line class="cls-2" x1="195.68" y1="3751.03" x2="195.68" y2="3603.39"/>
          <line class="cls-2" x1="278.1" y1="3698.93" x2="128.53" y2="3660.72"/>
        </g>
        <g>
          <polygon class="cls-2" points="278.1 5076.64 128.53 5038.58 128.53 5185.33 278.1 5229.82 278.1 5076.64"/>
          <line class="cls-2" x1="195.68" y1="5204.63" x2="195.68" y2="5056.99"/>
          <line class="cls-2" x1="278.1" y1="5152.53" x2="128.53" y2="5114.31"/>
        </g>
        <g>
          <polygon class="cls-2" points="467.24 4399.47 616.81 4338.41 616.81 4485.17 467.24 4552.65 467.24 4399.47"/>
          <line class="cls-2" x1="549.66" y1="4515.46" x2="549.66" y2="4365.82"/>
          <line class="cls-2" x1="467.24" y1="4475.36" x2="616.81" y2="4414.15"/>
        </g>
        <g>
          <polygon class="cls-2" points="467.24 5511.62 616.81 5450.56 616.81 5597.31 467.24 5664.8 467.24 5511.62"/>
          <line class="cls-2" x1="549.66" y1="5627.61" x2="549.66" y2="5477.97"/>
          <line class="cls-2" x1="467.24" y1="5587.51" x2="616.81" y2="5526.29"/>
        </g>
        <polyline class="cls-2" points="40.78 2796.74 72.33 2762.32 86.02 2773.88 103.32 2788.49 137.06 2749.24"/>
        <polyline class="cls-2" points="112.96 2824.98 112.96 2805.7 81.97 2801.57 86.02 2773.88"/>
        <path class="cls-3" d="M132.54,1272.99c57.68,0,104.44-46.76,104.44-104.44,0-45.25-28.78-83.78-69.04-98.28.12-2.04.19-4.09.19-6.16,0-57.68-46.76-104.44-104.44-104.44-37.98,0-71.23,20.28-89.51,50.6-14.97-8.29-32.19-13.02-50.52-13.02-45.55,0-84.28,29.16-98.56,69.82-7.95-1.93-16.25-2.97-24.79-2.97-57.68,0-104.44,46.76-104.44,104.44s46.76,104.44,104.44,104.44H132.54Z"/>
        <path class="cls-3" d="M832.93,2559.47c57.68,0,104.44-46.76,104.44-104.44,0-45.25-28.78-83.78-69.04-98.28.12-2.04.19-4.09.19-6.16,0-57.68-46.76-104.44-104.44-104.44-37.98,0-71.23,20.28-89.51,50.6-14.97-8.29-32.19-13.02-50.52-13.02-45.55,0-84.28,29.16-98.56,69.82-7.95-1.93-16.25-2.97-24.79-2.97-57.68,0-104.44,46.76-104.44,104.44s46.76,104.44,104.44,104.44h332.23Z"/>
        <path class="cls-3" d="M162.97,4222.1c57.68,0,104.44-46.76,104.44-104.44,0-45.25-28.78-83.78-69.04-98.28.12-2.04.19-4.09.19-6.16,0-57.68-46.76-104.44-104.44-104.44-37.98,0-71.23,20.28-89.51,50.6-14.97-8.29-32.19-13.02-50.52-13.02-45.55,0-84.28,29.16-98.56,69.82-7.95-1.93-16.25-2.97-24.79-2.97-57.68,0-104.44,46.76-104.44,104.44s46.76,104.44,104.44,104.44H162.97Z"/>
        <path class="cls-3" d="M303.17,4344.68c57.68,0,104.44-46.76,104.44-104.44,0-45.25-28.78-83.78-69.04-98.28.12-2.04.19-4.09.19-6.16,0-57.68-46.76-104.44-104.44-104.44-37.98,0-71.23,20.28-89.51,50.6-14.97-8.29-32.19-13.02-50.52-13.02-45.55,0-84.28,29.16-98.56,69.82-7.95-1.93-16.25-2.97-24.79-2.97-57.68,0-104.44,46.76-104.44,104.44s46.76,104.44,104.44,104.44h332.23Z"/>
        <path class="cls-2" d="M538.61,1428.73c20.8-41.27,55.06-.48,55.06-.48,0,0,33.82-41.66,61.31-3.76"/>
        <path class="cls-2" d="M480.43,1448.89c20.8-41.27,55.06-.48,55.06-.48,0,0,33.82-41.66,61.31-3.76"/>
        <path class="cls-2" d="M596.8,1492.31c20.8-41.27,55.06-.48,55.06-.48,0,0,33.82-41.66,61.31-3.76"/>
        <path class="cls-2" d="M439.5,1482.23c20.8-41.27,55.06-.48,55.06-.48,0,0,33.82-41.66,61.31-3.76"/>
      </g>
    </g>
  </g>
</svg>